<?xml version="1.0" encoding="UTF-8" standalone="no"?><svg width="130" height="97" viewBox="0 0 130 97" fill="none" xmlns="http://www.w3.org/2000/svg">
<path d="M107.631 95.7397H105.196V75.5426H108.962L111.484 92.3733C111.107 88.4414 110.615 81.9068 110.615 78.4849V75.5426H113.048V95.7397H109.6L107.283 79.6158C107.486 83.236 107.631 87.5074 107.631 89.9409V95.7397ZM117.888 95.7397H114.44V75.5426H117.888C120.177 75.5426 121.596 76.7594 121.596 79.6158V82.5581C121.596 84.3972 121.017 85.33 120.205 85.8109C121.016 86.3196 121.596 87.2246 121.596 88.7809V91.7232C121.596 94.4951 120.09 95.7397 117.888 95.7397ZM117.221 78.0885V84.7645H117.569C118.554 84.7645 118.815 84.425 118.815 83.294V79.4467C118.815 78.5127 118.526 78.0885 117.685 78.0885H117.221ZM117.221 86.9709V93.1937H117.685C118.554 93.1937 118.815 92.7406 118.815 91.78V88.329C118.815 87.3672 118.497 86.9709 117.569 86.9709H117.221ZM126.812 91.751H125.103L124.872 95.7397H122.061L124.06 75.5426H128.029L130 95.7397H127.074L126.812 91.751ZM125.248 89.2341H126.668L126.465 85.9523C126.348 84.425 126.059 79.5035 125.914 77.0699C125.739 79.5023 125.538 84.5095 125.45 85.9523L125.248 89.2341Z" fill="white"/>
<path d="M100.354 75H95.254C94.01 75 93 75.9872 93 77.2003V94.0564C93 95.2707 94.01 96.2604 95.254 96.2604H100.35C101.594 96.2604 102.609 95.272 102.609 94.0564V77.2003C102.609 75.9872 101.596 75 100.354 75Z" fill="white"/>
<path d="M100.135 93.7325C99.8576 93.4908 100.043 93.3893 100.032 93.2939C99.8489 92.558 99.2498 92.1122 99.5605 91.8693C99.4838 91.6264 99.329 91.3207 99.334 91.3219C98.4007 90.7987 97.6048 89.9481 97.4699 89.8236C97.3065 89.6496 97.0268 89.4756 96.9748 89.3342C96.7507 89.1324 95.6503 87.6087 95.3941 87.0481L94.9473 86.9865C94.743 86.1769 94.0647 85.4978 94.0486 84.6846C94.0425 84.3777 94.191 83.7192 94.2467 83.5887C94.3012 83.4558 94.5611 83.2371 94.5611 83.2371V83.0196C93.587 83.0473 93.8667 82.9495 93.6984 82.5797C93.5808 82.3236 93.6649 82.268 93.707 82.0904C93.8382 81.5659 94.2727 80.7576 94.4522 80.3903C94.5066 80.2054 94.6948 79.7583 94.6948 79.7583C95.4213 78.3144 95.6924 78.4207 96.5539 78.3397L96.596 78.2805C97.46 78.2443 97.3189 78.1802 97.4402 77.367C97.3139 77.4202 97.2768 77.1121 97.2768 77.1121C97.2075 76.6493 97.408 76.7375 97.5021 76.7278C97.5219 75.9678 97.6023 75.7286 98.1643 75.5183H95.2555C94.3036 75.5183 93.5312 76.2723 93.5312 77.2015V94.0563C93.5312 94.9867 94.3024 95.7395 95.2555 95.7395H100.354C99.7697 95.4314 100.115 94.8454 100.135 93.7325Z" fill="#1D428A"/>
<path d="M99.0887 78.8968L99.0937 78.9693C99.2496 79.0575 99.3276 79.13 99.4848 79.2278C99.9007 79.4828 100.413 79.9371 100.349 81.5031C100.465 81.8439 100.517 82.5157 100.625 82.7308C100.841 83.1501 100.986 83.4231 101.049 83.8183C101.049 83.8183 101.111 84.4345 101.193 84.4792C101.622 84.5735 101.499 84.6157 101.562 84.687C101.629 84.7716 101.876 84.768 101.876 84.9927C101.963 85.1051 102.026 85.2223 102.074 85.3444V77.2003C102.074 76.2723 101.301 75.5183 100.354 75.5183H98.7062C98.9711 75.6101 99.1197 75.7189 99.2075 75.8905C99.4204 75.9086 99.673 76.3738 99.2793 77.0613C99.4539 77.1749 99.3177 77.3441 99.1927 77.541C99.1556 77.6039 99.116 77.7162 98.9996 77.709C98.8498 78.0159 98.6691 78.3144 98.533 78.3325C98.4921 78.382 98.4612 78.5149 98.5243 78.5766C98.7236 78.6648 98.9674 78.7856 99.0887 78.8968Z" fill="#DA1A32"/>
<path d="M102.074 86.4477C101.85 87.0011 101.295 87.3926 100.645 87.3926C99.7944 87.3926 99.1087 86.7207 99.1087 85.893C99.1087 85.1862 99.6063 84.5929 100.283 84.4346C100.106 84.002 99.7325 83.3012 99.6211 83.0704C99.5159 82.842 99.2622 81.4162 99.2077 81.1335C99.1953 81.0719 98.5455 81.502 98.5443 81.5286C98.5059 81.5648 98.0566 82.7115 98.0368 82.7732C98.0281 82.8118 98.0269 82.9653 98.0269 82.9653C98.0269 82.9653 98.2484 82.9919 98.3759 83.3689C98.5022 83.7447 98.8859 85.1185 98.8859 85.1185C98.8859 85.1185 98.7819 85.2236 98.777 85.2176C99.2622 86.8041 99.0926 87.4856 99.3104 87.9508C99.584 88.6069 99.6583 88.5199 99.8922 89.0709C100.061 89.4721 100.249 91.0514 100.312 91.1214C100.574 91.4453 100.715 91.699 100.715 91.8815C100.715 92.0651 100.494 92.6089 100.574 92.9267C100.624 93.1128 100.648 93.5308 100.738 93.6106C100.738 93.6106 100.819 93.7677 100.78 93.8365C100.769 93.8607 100.745 93.8969 100.755 93.9259C100.9 94.4238 101.366 95.2732 100.61 95.7179H100.626C101.451 95.5934 102.076 94.9035 102.076 94.0552V86.4477H102.074Z" fill="#DA1A32"/>
<path d="M7.86331 52.1061H1.67029L3.0015 44.524H4.9115L6.58998 39.6043H12.0885L11.2203 42.0352H34.3139L26.9054 64.4342H0.512718L1.84393 56.91H11.6254L11.2782 51.4694H16.7188L17.1239 56.91H23.1433L25.6321 49.5594H8.73149L7.86331 52.1061ZM38.076 21.6619H33.5615L30.6096 38.1573H24.9375L27.8893 21.6619H23.3748L24.6481 14.1376H29.1627L29.6836 11.4173H35.3557L34.8348 14.1376H39.3493L38.076 21.6619ZM21.87 21.6619H17.3554L14.4036 38.1573H8.73149L11.6833 21.6619H7.22665L8.49998 14.1376H12.9566L13.4775 11.4173H19.1497L18.6288 14.1376H23.1433L21.87 21.6619ZM18.8024 38.1573H15.3875L17.4133 23.514H20.7703L18.8024 38.1573ZM23.8378 38.1573H20.423L23.6642 23.514H27.0212L23.8378 38.1573ZM35.0084 38.1573H31.5936L33.6193 23.514H36.9763L35.0084 38.1573ZM7.6318 38.1573H4.27483L7.45816 23.514H10.8151L7.6318 38.1573ZM52.8703 45.6236L50.3237 64.2606H49.0503V64.3185H34.5807L43.3782 41.5721H38.5743L40.137 32.7746L48.2979 11.2437H53.97L45.8091 32.7746H46.851L49.9185 24.9609H55.7643L43.8413 55.5788H46.851L48.24 45.6236H52.8703ZM74.5749 11.2437L65.2564 64.3185H53.3334L54.8382 55.5788H61.0891L67.3979 20.0413H56.9797L58.4846 11.2437H74.5749ZM91.0477 12.1698L81.7871 64.8394H73.5104L81.0347 22.2406H75.4204L76.4044 16.6843L85.0283 12.1698H91.0477ZM111.567 12.054L103.059 60.0933H94.609L93.9724 63.9133H88.416L97.5608 12.054H111.567ZM115.445 11.5331H121.291L120.018 15.7582H128.931L127.368 24.4979H117.297L114.23 34.3952H116.429L117.182 30.0543H122.854L122.101 34.3952H125.632L124.069 43.2506H120.539L119.381 49.6173H122.912L121.407 58.4148H117.876L116.95 63.566H111.278L112.204 58.4148H104.333L105.837 49.6173H113.709L114.867 43.2506H106.995L108.558 34.3952L111.567 24.4979H110.294L111.857 15.7582H114.172L115.445 11.5331ZM99.6445 31.7328H102.423L104.333 20.7937H101.554L99.6445 31.7328ZM96.1717 51.2958H98.9499L100.86 40.4724H98.0817L96.1717 51.2958Z" fill="white"/>
<path d="M27.316 91H28.17V86.226H31.054V85.498H28.17V81.466H31.502L31.6 80.738H27.316V91ZM36.8158 89.502V85.344C36.8158 83.888 36.1438 83.006 34.6738 83.006C33.9458 83.006 33.2598 83.202 32.5458 83.524L32.7838 84.126C33.4138 83.86 33.9878 83.706 34.5758 83.706C35.5698 83.706 35.9758 84.28 35.9758 85.4V86.296H34.9398C33.1338 86.296 32.0978 87.178 32.0978 88.83C32.0978 90.216 32.8538 91.168 34.1278 91.168C34.9678 91.168 35.6258 90.762 36.0738 89.922C36.1858 90.664 36.5218 91.014 37.1518 91.168L37.3338 90.58C36.9838 90.412 36.8158 90.16 36.8158 89.502ZM34.2538 90.496C33.4558 90.496 32.9658 89.922 32.9658 88.802C32.9658 87.528 33.6378 86.912 35.0238 86.912H35.9758V89.054C35.5978 89.964 35.0518 90.496 34.2538 90.496ZM42.2723 83.006C41.2783 83.006 40.6623 83.608 40.1443 84.518L40.0463 83.16H39.3323V91H40.1723V85.386C40.6903 84.364 41.3203 83.692 42.1043 83.692C42.8323 83.692 43.2243 84.21 43.2243 85.372V91H44.0643V85.26C44.0643 83.888 43.4203 83.006 42.2723 83.006ZM49.2397 90.132C48.9317 90.328 48.6517 90.44 48.2737 90.44C47.6577 90.44 47.3777 90.048 47.3777 89.404V83.86H48.9177L49.0297 83.16H47.3777V81.186L46.5377 81.298V83.16H45.4877V83.86H46.5377V89.404C46.5377 90.482 47.1537 91.168 48.1897 91.168C48.7077 91.168 49.1697 90.986 49.5757 90.664L49.2397 90.132ZM54.6029 89.502V85.344C54.6029 83.888 53.9309 83.006 52.4609 83.006C51.7329 83.006 51.0469 83.202 50.3329 83.524L50.5709 84.126C51.2009 83.86 51.7749 83.706 52.3629 83.706C53.3569 83.706 53.7629 84.28 53.7629 85.4V86.296H52.7269C50.9209 86.296 49.8849 87.178 49.8849 88.83C49.8849 90.216 50.6409 91.168 51.9149 91.168C52.7549 91.168 53.4129 90.762 53.8609 89.922C53.9729 90.664 54.3089 91.014 54.9389 91.168L55.1209 90.58C54.7709 90.412 54.6029 90.16 54.6029 89.502ZM52.0409 90.496C51.2429 90.496 50.7529 89.922 50.7529 88.802C50.7529 87.528 51.4249 86.912 52.8109 86.912H53.7629V89.054C53.3849 89.964 52.8389 90.496 52.0409 90.496ZM58.7574 83.006C57.4834 83.006 56.5454 83.874 56.5454 85.05C56.5454 86.058 57.0914 86.66 58.4634 87.164C59.7794 87.654 60.1574 88.032 60.1574 88.928C60.1574 89.936 59.5134 90.482 58.6174 90.482C57.8334 90.482 57.2874 90.174 56.7414 89.684L56.2794 90.16C56.8534 90.734 57.5814 91.168 58.6314 91.168C59.9474 91.168 61.0114 90.328 61.0114 88.9C61.0114 87.654 60.3534 87.094 58.9394 86.562C57.7774 86.128 57.3854 85.778 57.3854 85.036C57.3854 84.182 57.9454 83.692 58.7714 83.692C59.4154 83.692 59.8914 83.916 60.4234 84.378L60.8294 83.874C60.2274 83.3 59.5694 83.006 58.7574 83.006ZM67.2862 83.16H66.4322L64.5702 90.37L62.6662 83.16H61.8122L64.0102 91H64.3322C63.9122 92.4 63.5622 93.016 62.2602 93.394L62.3722 94.052C63.9682 93.66 64.6122 92.736 65.0742 91.028L67.2862 83.16ZM74.9164 83.006C74.0624 83.006 73.4464 83.496 72.9984 84.21V79.884L72.1584 79.968V91H72.8864L72.9704 90.02C73.3764 90.664 73.9924 91.168 74.7904 91.168C76.3164 91.168 77.2684 89.698 77.2684 87.052C77.2684 84.294 76.3864 83.006 74.9164 83.006ZM74.6644 90.454C73.9504 90.454 73.4044 89.936 72.9984 89.25V85.036C73.4324 84.294 73.9644 83.706 74.7624 83.706C75.7704 83.706 76.3724 84.574 76.3724 87.052C76.3724 89.474 75.7284 90.454 74.6644 90.454ZM83.6925 83.16H82.8385L80.9765 90.37L79.0725 83.16H78.2185L80.4165 91H80.7385C80.3185 92.4 79.9685 93.016 78.6665 93.394L78.7785 94.052C80.3745 93.66 81.0185 92.736 81.4805 91.028L83.6925 83.16Z" fill="white"/>
</svg>
